<svg width="78" height="86" viewBox="0 0 78 86" fill="none" xmlns="http://www.w3.org/2000/svg">
<path fill-rule="evenodd" clip-rule="evenodd" d="M77.4 86H12.9C5.77553 86 0 80.2245 0 73.1V12.9C0 5.77553 5.77553 0 12.9 0H77.4V68.8C75.0252 68.8 73.1 70.7252 73.1 73.1C73.1 75.4748 75.0252 77.4 77.4 77.4V86ZM64.5 73.1C64.5 71.5923 64.7587 70.145 65.234 68.8H12.9C10.5252 68.8 8.6 70.7252 8.6 73.1C8.6 75.4748 10.5252 77.4 12.9 77.4H65.234C64.7587 76.0551 64.5 74.6077 64.5 73.1ZM12.9 8.6H68.8V60.2H12.9C11.3923 60.2 9.94495 60.4587 8.6 60.934V12.9C8.6 10.5252 10.5252 8.6 12.9 8.6Z" fill="black"/>
</svg>
